HIERARCHY
ROOT mixamorig:Hips
{
	OFFSET -0.000008 104.274872 1.554316
	CHANNELS 6 Xposition Yposition Zposition Xrotation Yrotation Zrotation
	JOINT mixamorig:Spine
	{
		OFFSET -0.000005 10.181595 0.131519
		CHANNELS 6 Xposition Yposition Zposition Xrotation Yrotation Zrotation
		JOINT mixamorig:Spine1
		{
			OFFSET -0.000000 9.893959 -1.470707
			CHANNELS 6 Xposition Yposition Zposition Xrotation Yrotation Zrotation
			JOINT mixamorig:Spine2
			{
				OFFSET -0.000000 9.220757 -1.370641
				CHANNELS 6 Xposition Yposition Zposition Xrotation Yrotation Zrotation
				JOINT mixamorig:Neck
				{
					OFFSET 0.000001 16.740417 -2.049036
					CHANNELS 6 Xposition Yposition Zposition Xrotation Yrotation Zrotation
					JOINT mixamorig:Head
					{
						OFFSET 0.000000 9.617874 1.685006
						CHANNELS 6 Xposition Yposition Zposition Xrotation Yrotation Zrotation
						JOINT mixamorig:HeadTop_End
						{
							OFFSET 0.000002 22.037354 7.501101
							CHANNELS 6 Xposition Yposition Zposition Xrotation Yrotation Zrotation
							End Site
							{
								OFFSET 0.000168 2310.654297 -282.823242
							}
						}
					}
				}
				JOINT mixamorig:RightShoulder
				{
					OFFSET -4.569970 11.014908 -2.160885
					CHANNELS 6 Xposition Yposition Zposition Xrotation Yrotation Zrotation
					JOINT mixamorig:RightArm
					{
						OFFSET -10.592851 -0.524811 -2.232101
						CHANNELS 6 Xposition Yposition Zposition Xrotation Yrotation Zrotation
						JOINT mixamorig:RightForeArm
						{
							OFFSET -27.841511 0.000031 -0.000004
							CHANNELS 6 Xposition Yposition Zposition Xrotation Yrotation Zrotation
							JOINT mixamorig:RightHand
							{
								OFFSET -28.328831 -0.000015 0.000015
								CHANNELS 6 Xposition Yposition Zposition Xrotation Yrotation Zrotation
								JOINT mixamorig:RightHandThumb1
								{
									OFFSET -2.464806 -1.573990 2.681852
									CHANNELS 6 Xposition Yposition Zposition Xrotation Yrotation Zrotation
									JOINT mixamorig:RightHandThumb2
									{
										OFFSET -3.215179 -1.872803 1.924282
										CHANNELS 6 Xposition Yposition Zposition Xrotation Yrotation Zrotation
										JOINT mixamorig:RightHandThumb3
										{
											OFFSET -2.654831 -1.527969 1.512609
											CHANNELS 6 Xposition Yposition Zposition Xrotation Yrotation Zrotation
											JOINT mixamorig:RightHandThumb4
											{
												OFFSET -2.018814 -1.152008 1.108052
												CHANNELS 6 Xposition Yposition Zposition Xrotation Yrotation Zrotation
												End Site
												{
													OFFSET -188.809540 -114.533607 132.431396
												}
											}
										}
									}
								}
								JOINT mixamorig:RightHandIndex1
								{
									OFFSET -9.108284 -0.517868 2.259835
									CHANNELS 6 Xposition Yposition Zposition Xrotation Yrotation Zrotation
									JOINT mixamorig:RightHandIndex2
									{
										OFFSET -3.699989 0.000000 0.001215
										CHANNELS 6 Xposition Yposition Zposition Xrotation Yrotation Zrotation
										JOINT mixamorig:RightHandIndex3
										{
											OFFSET -2.850006 0.000031 -0.000522
											CHANNELS 6 Xposition Yposition Zposition Xrotation Yrotation Zrotation
											JOINT mixamorig:RightHandIndex4
											{
												OFFSET -2.772186 -0.000015 -0.000020
												CHANNELS 6 Xposition Yposition Zposition Xrotation Yrotation Zrotation
												End Site
												{
													OFFSET -277.218445 0.000000 -0.050231
												}
											}
										}
									}
								}
								JOINT mixamorig:RightHandMiddle1
								{
									OFFSET -9.532516 -0.000031 -0.000023
									CHANNELS 6 Xposition Yposition Zposition Xrotation Yrotation Zrotation
									JOINT mixamorig:RightHandMiddle2
									{
										OFFSET -3.700005 -0.000015 0.003713
										CHANNELS 6 Xposition Yposition Zposition Xrotation Yrotation Zrotation
										JOINT mixamorig:RightHandMiddle3
										{
											OFFSET -2.949974 0.000015 -0.002054
											CHANNELS 6 Xposition Yposition Zposition Xrotation Yrotation Zrotation
											JOINT mixamorig:RightHandMiddle4
											{
												OFFSET -2.946640 0.000000 -0.000156
												CHANNELS 6 Xposition Yposition Zposition Xrotation Yrotation Zrotation
												End Site
												{
													OFFSET -294.664337 0.000000 -0.113670
												}
											}
										}
									}
								}
								JOINT mixamorig:RightHandRing1
								{
									OFFSET -9.103600 -0.043076 -1.865134
									CHANNELS 6 Xposition Yposition Zposition Xrotation Yrotation Zrotation
									JOINT mixamorig:RightHandRing2
									{
										OFFSET -3.379288 0.000000 -0.001055
										CHANNELS 6 Xposition Yposition Zposition Xrotation Yrotation Zrotation
										JOINT mixamorig:RightHandRing3
										{
											OFFSET -2.889687 -0.000015 0.000379
											CHANNELS 6 Xposition Yposition Zposition Xrotation Yrotation Zrotation
											JOINT mixamorig:RightHandRing4
											{
												OFFSET -2.638809 -0.000015 0.000941
												CHANNELS 6 Xposition Yposition Zposition Xrotation Yrotation Zrotation
												End Site
												{
													OFFSET -263.880371 0.000000 0.516020
												}
											}
										}
									}
								}
								JOINT mixamorig:RightHandPinky1
								{
									OFFSET -8.076683 -0.486710 -3.806280
									CHANNELS 6 Xposition Yposition Zposition Xrotation Yrotation Zrotation
									JOINT mixamorig:RightHandPinky2
									{
										OFFSET -3.600014 -0.000015 -0.003747
										CHANNELS 6 Xposition Yposition Zposition Xrotation Yrotation Zrotation
										JOINT mixamorig:RightHandPinky3
										{
											OFFSET -2.099983 0.000000 -0.005739
											CHANNELS 6 Xposition Yposition Zposition Xrotation Yrotation Zrotation
											JOINT mixamorig:RightHandPinky4
											{
												OFFSET -2.115768 -0.000031 -0.003680
												CHANNELS 6 Xposition Yposition Zposition Xrotation Yrotation Zrotation
												End Site
												{
													OFFSET -211.577087 0.000000 -0.350686
												}
											}
										}
									}
								}
							}
						}
					}
				}
				JOINT mixamorig:LeftShoulder
				{
					OFFSET 4.570447 11.014725 -2.160855
					CHANNELS 6 Xposition Yposition Zposition Xrotation Yrotation Zrotation
					JOINT mixamorig:LeftArm
					{
						OFFSET 10.592371 -0.524597 -2.232119
						CHANNELS 6 Xposition Yposition Zposition Xrotation Yrotation Zrotation
						JOINT mixamorig:LeftForeArm
						{
							OFFSET 27.841532 -0.000031 0.000026
							CHANNELS 6 Xposition Yposition Zposition Xrotation Yrotation Zrotation
							JOINT mixamorig:LeftHand
							{
								OFFSET 28.328846 -0.000061 0.000022
								CHANNELS 6 Xposition Yposition Zposition Xrotation Yrotation Zrotation
								JOINT mixamorig:LeftHandThumb1
								{
									OFFSET 2.466141 -1.576172 2.681732
									CHANNELS 6 Xposition Yposition Zposition Xrotation Yrotation Zrotation
									JOINT mixamorig:LeftHandThumb2
									{
										OFFSET 3.217812 -1.872070 1.916482
										CHANNELS 6 Xposition Yposition Zposition Xrotation Yrotation Zrotation
										JOINT mixamorig:LeftHandThumb3
										{
											OFFSET 2.656029 -1.528778 1.514513
											CHANNELS 6 Xposition Yposition Zposition Xrotation Yrotation Zrotation
											JOINT mixamorig:LeftHandThumb4
											{
												OFFSET 2.020889 -1.154053 1.115139
												CHANNELS 6 Xposition Yposition Zposition Xrotation Yrotation Zrotation
												End Site
												{
													OFFSET 190.885437 -115.081749 130.048782
												}
											}
										}
									}
								}
								JOINT mixamorig:LeftHandIndex1
								{
									OFFSET 9.109314 -0.518021 2.259871
									CHANNELS 6 Xposition Yposition Zposition Xrotation Yrotation Zrotation
									JOINT mixamorig:LeftHandIndex2
									{
										OFFSET 3.699989 0.000000 -0.000322
										CHANNELS 6 Xposition Yposition Zposition Xrotation Yrotation Zrotation
										JOINT mixamorig:LeftHandIndex3
										{
											OFFSET 2.850006 0.000000 0.000352
											CHANNELS 6 Xposition Yposition Zposition Xrotation Yrotation Zrotation
											JOINT mixamorig:LeftHandIndex4
											{
												OFFSET 2.774864 -0.000031 -0.000027
												CHANNELS 6 Xposition Yposition Zposition Xrotation Yrotation Zrotation
												End Site
												{
													OFFSET 277.486267 0.000000 -0.009857
												}
											}
										}
									}
								}
								JOINT mixamorig:LeftHandMiddle1
								{
									OFFSET 9.533394 0.000061 0.000044
									CHANNELS 6 Xposition Yposition Zposition Xrotation Yrotation Zrotation
									JOINT mixamorig:LeftHandMiddle2
									{
										OFFSET 3.699989 -0.000015 -0.000231
										CHANNELS 6 Xposition Yposition Zposition Xrotation Yrotation Zrotation
										JOINT mixamorig:LeftHandMiddle3
										{
											OFFSET 2.949997 -0.000015 -0.000059
											CHANNELS 6 Xposition Yposition Zposition Xrotation Yrotation Zrotation
											JOINT mixamorig:LeftHandMiddle4
											{
												OFFSET 2.952896 0.000031 0.000063
												CHANNELS 6 Xposition Yposition Zposition Xrotation Yrotation Zrotation
												End Site
												{
													OFFSET 295.289337 0.000000 0.022810
												}
											}
										}
									}
								}
								JOINT mixamorig:LeftHandRing1
								{
									OFFSET 9.104523 -0.042999 -1.865074
									CHANNELS 6 Xposition Yposition Zposition Xrotation Yrotation Zrotation
									JOINT mixamorig:LeftHandRing2
									{
										OFFSET 3.150009 -0.000031 0.000043
										CHANNELS 6 Xposition Yposition Zposition Xrotation Yrotation Zrotation
										JOINT mixamorig:LeftHandRing3
										{
											OFFSET 2.949982 -0.000015 0.000040
											CHANNELS 6 Xposition Yposition Zposition Xrotation Yrotation Zrotation
											JOINT mixamorig:LeftHandRing4
											{
												OFFSET 2.644348 0.000000 0.000057
												CHANNELS 6 Xposition Yposition Zposition Xrotation Yrotation Zrotation
												End Site
												{
													OFFSET 264.434631 0.000000 0.012105
												}
											}
										}
									}
								}
								JOINT mixamorig:LeftHandPinky1
								{
									OFFSET 8.077789 -0.486847 -3.806259
									CHANNELS 6 Xposition Yposition Zposition Xrotation Yrotation Zrotation
									JOINT mixamorig:LeftHandPinky2
									{
										OFFSET 3.599953 0.000031 0.014727
										CHANNELS 6 Xposition Yposition Zposition Xrotation Yrotation Zrotation
										JOINT mixamorig:LeftHandPinky3
										{
											OFFSET 2.100021 0.000015 0.007705
											CHANNELS 6 Xposition Yposition Zposition Xrotation Yrotation Zrotation
											JOINT mixamorig:LeftHandPinky4
											{
												OFFSET 2.125504 0.000031 0.007517
												CHANNELS 6 Xposition Yposition Zposition Xrotation Yrotation Zrotation
												End Site
												{
													OFFSET 212.550781 0.000000 0.625752
												}
											}
										}
									}
								}
							}
						}
					}
				}
			}
		}
	}
	JOINT mixamorig:RightUpLeg
	{
		OFFSET -8.207787 -6.751648 -1.599560
		CHANNELS 6 Xposition Yposition Zposition Xrotation Yrotation Zrotation
		JOINT mixamorig:RightLeg
		{
			OFFSET -0.000002 -44.370117 0.345942
			CHANNELS 6 Xposition Yposition Zposition Xrotation Yrotation Zrotation
			JOINT mixamorig:RightFoot
			{
				OFFSET 0.000003 -44.423679 -3.043532
				CHANNELS 6 Xposition Yposition Zposition Xrotation Yrotation Zrotation
				JOINT mixamorig:RightToeBase
				{
					OFFSET -0.000002 -8.728671 10.710558
					CHANNELS 6 Xposition Yposition Zposition Xrotation Yrotation Zrotation
					JOINT mixamorig:RightToe_End
					{
						OFFSET -0.000001 -0.000679 9.278119
						CHANNELS 6 Xposition Yposition Zposition Xrotation Yrotation Zrotation
						End Site
						{
							OFFSET 0.000000 -0.067690 927.812134
						}
					}
				}
			}
		}
	}
	JOINT mixamorig:LeftUpLeg
	{
		OFFSET 8.207793 -6.751686 -1.599556
		CHANNELS 6 Xposition Yposition Zposition Xrotation Yrotation Zrotation
		JOINT mixamorig:LeftLeg
		{
			OFFSET -0.000004 -44.370014 0.346954
			CHANNELS 6 Xposition Yposition Zposition Xrotation Yrotation Zrotation
			JOINT mixamorig:LeftFoot
			{
				OFFSET -0.000001 -44.423672 -3.044401
				CHANNELS 6 Xposition Yposition Zposition Xrotation Yrotation Zrotation
				JOINT mixamorig:LeftToeBase
				{
					OFFSET -0.000002 -8.728669 10.710558
					CHANNELS 6 Xposition Yposition Zposition Xrotation Yrotation Zrotation
					JOINT mixamorig:LeftToe_End
					{
						OFFSET -0.000003 -0.000679 9.278133
						CHANNELS 6 Xposition Yposition Zposition Xrotation Yrotation Zrotation
						End Site
						{
							OFFSET 0.000000 -0.068021 927.813477
						}
					}
				}
			}
		}
	}
}
MOTION
Frames: 3
Frame Time: 0.033333
0.000006 104.270477 1.554256 0.000010 0.000003 -0.000113 -0.000005 10.181587 0.131522 0.000001 -0.000003 0.000084 -0.000000 9.893967 -1.470711 0.000001 0.000000 -0.000000 -0.000000 9.220802 -1.370642 0.000000 -0.000000 -0.000000 0.000001 16.740433 -2.049030 0.000000 -0.000000 -0.000000 0.000000 9.617859 1.685014 0.000000 0.000000 0.000000 0.000002 22.037384 7.501101 0.000000 -0.000000 0.000000 -4.569968 11.014880 -2.160881 0.000008 0.000001 -0.000038 -10.592866 -0.524673 -2.232038 69.369259 6.188962 -4.285164 -27.841560 0.000022 0.000514 113.559695 61.740525 -84.780160 -28.328819 0.000021 0.000023 -0.000317 -0.000044 0.000006 -2.464429 -1.573811 2.682358 -43.155334 -165.664025 2.945064 -3.215277 -1.872596 1.924690 159.612751 30.188989 -6.421398 -2.654950 -1.527898 1.513105 151.210225 25.009296 -45.086355 -2.018831 -1.152016 1.108064 -0.000002 0.000000 0.000004 -9.108386 -0.517563 2.260114 94.102556 17.709185 -19.052362 -3.700082 0.000306 0.001491 91.066120 16.579333 -16.861452 -2.850084 0.000359 -0.000282 88.517749 13.376432 -13.036837 -2.772162 0.000000 -0.000019 0.000001 -0.000001 -0.000001 -9.532597 0.000277 0.000198 87.980582 14.492632 -14.131182 -3.700085 0.000329 0.003947 89.945750 11.796245 -11.690898 -2.950051 0.000340 -0.001850 88.061240 11.246519 -10.867695 -2.946639 0.000001 -0.000156 -0.000000 0.000003 -0.000000 -9.103690 -0.042753 -1.864900 85.831681 15.815144 -14.675983 -3.379324 0.000330 -0.000832 89.630134 8.390661 -8.353818 -2.889728 0.000356 0.000593 90.280853 5.428337 -5.499764 -2.638812 0.000001 0.000946 -0.000001 -0.000000 0.000001 -8.076731 -0.486401 -3.806071 78.136941 15.239236 -12.274154 -3.600046 0.000265 -0.003563 83.153605 6.893969 -5.808319 -2.100000 0.000317 -0.005538 81.918010 4.032749 -3.314717 -2.115775 -0.000056 -0.003678 0.000001 -0.000002 -0.000003 4.570446 11.014691 -2.160851 -0.000018 0.000010 -0.000021 10.592357 -0.524542 -2.232283 69.854851 12.631531 -8.839140 27.841850 0.000121 -0.000207 105.941452 -62.083093 77.168044 28.328827 -0.000042 0.000011 0.000020 -0.000088 -0.000001 2.465978 -1.576176 2.681892 -36.760809 151.759850 -11.987691 3.217768 -1.871713 1.916353 150.545989 -32.039601 -10.996377 2.656084 -1.528586 1.514430 144.401564 -27.865497 29.818424 2.020907 -1.154056 1.115147 0.000006 0.000003 0.000002 9.109368 -0.517856 2.259727 91.786596 -14.778405 15.228547 3.700055 0.000160 -0.000456 90.090619 -17.787095 17.832548 2.850075 0.000202 0.000211 90.291119 -15.503700 15.580346 2.774871 -0.000013 -0.000023 -0.000000 0.000002 0.000000 9.533447 0.000223 -0.000083 92.556631 -13.453895 14.053013 3.700074 0.000162 -0.000367 95.223485 -17.936138 19.615673 2.950082 0.000165 -0.000177 94.970461 -20.991920 22.852174 2.952873 -0.000034 0.000067 -0.000000 0.000000 0.000003 9.104570 -0.042837 -1.865235 92.147305 -13.591276 14.107272 3.150065 0.000197 -0.000088 97.180205 -16.921565 19.149701 2.950042 0.000166 -0.000038 98.303586 -17.719838 20.441289 2.644324 0.000016 0.000052 0.000002 0.000000 0.000000 8.077808 -0.486737 -3.806408 79.283552 -16.585144 14.261576 3.600008 0.000178 0.014556 81.160850 -13.216842 11.771640 2.100054 0.000186 0.007541 85.987587 -11.891992 11.541608 2.125500 -0.000014 0.007523 0.000000 -0.000000 0.000004 -8.207786 -6.751667 -1.599560 -0.077001 -0.000003 0.000080 -0.000002 -44.370110 0.345938 0.153719 -0.000000 -0.000000 0.000000 -44.423679 -3.043532 -0.076700 0.000000 -0.000002 -0.000006 -8.728667 10.710559 -0.000009 -0.000000 -0.000000 -0.000001 -0.000679 9.278123 0.000000 -0.000000 -0.000000 8.207792 -6.751710 -1.599556 -0.074518 -0.000003 0.000081 -0.000002 -44.370014 0.346960 0.148822 0.000002 0.000000 -0.000001 -44.423664 -3.044403 -0.074314 0.000000 -0.000002 -0.000004 -8.728671 10.710558 0.000007 -0.000000 -0.000000 0.000000 -0.000680 9.278137 -0.000000 0.000000 -0.000001 
0.000006 104.270477 1.554256 0.000010 0.000003 -0.000113 -0.000005 10.181587 0.131522 0.000001 -0.000003 0.000084 -0.000000 9.893967 -1.470711 0.000001 0.000000 -0.000000 -0.000000 9.220802 -1.370642 0.000000 -0.000000 -0.000000 0.000001 16.740433 -2.049030 0.000000 -0.000000 -0.000000 0.000000 9.617859 1.685014 0.000000 0.000000 0.000000 0.000002 22.037384 7.501101 0.000000 -0.000000 0.000000 -4.569968 11.014880 -2.160881 0.000008 0.000001 -0.000038 -10.592874 -0.524692 -2.232008 68.594251 10.604150 -7.243944 -27.841545 0.000020 0.000518 115.272543 64.312911 -89.540836 -28.328814 0.000006 0.000026 -0.000321 -0.000045 0.000007 -2.464419 -1.573858 2.682374 -39.384186 -159.225684 9.842864 -3.215301 -1.872611 1.924662 153.304170 29.710575 -7.519204 -2.654956 -1.527852 1.513068 143.256716 27.802430 -34.970094 -2.018845 -1.152003 1.108068 -0.000001 -0.000000 0.000000 -9.108374 -0.517545 2.260125 101.655010 14.236667 -17.483763 -3.700059 0.000311 0.001525 97.960076 13.921506 -15.951263 -2.850097 0.000355 -0.000259 96.633230 10.811049 -12.130730 -2.772163 -0.000016 -0.000011 -0.000000 -0.000001 -0.000000 -9.532579 0.000293 0.000224 93.527843 11.751188 -12.636822 -3.700067 0.000321 0.003966 92.768449 11.935055 -12.422469 -2.950053 0.000348 -0.001807 92.657322 11.027262 -11.540096 -2.946623 0.000000 -0.000158 0.000001 0.000000 -0.000001 -9.103692 -0.042737 -1.864893 90.346669 13.605260 -13.643678 -3.379344 0.000298 -0.000818 92.824231 10.723358 -11.280449 -2.889778 0.000341 0.000637 95.755250 7.568785 -8.418016 -2.638824 -0.000001 0.000943 -0.000003 0.000003 -0.000000 -8.076748 -0.486389 -3.806057 82.888485 13.712195 -11.991235 -3.600032 0.000281 -0.003539 85.745594 7.754041 -6.873214 -2.100011 0.000320 -0.005510 88.312611 4.600892 -4.257656 -2.115752 -0.000041 -0.003689 -0.000001 -0.000001 -0.000003 4.570446 11.014691 -2.160851 -0.000018 0.000010 -0.000021 10.592355 -0.524558 -2.232261 69.854510 16.331855 -11.444410 27.841837 0.000112 -0.000207 106.352527 -63.912880 79.598758 28.328814 -0.000043 0.000025 0.000019 -0.000089 0.000001 2.466199 -1.576115 2.681868 4.395146 156.083278 -83.920103 3.217784 -1.871722 1.916373 160.528625 -32.619679 -5.035267 2.656088 -1.528556 1.514439 152.521020 -26.348573 32.557709 2.020888 -1.154077 1.115142 0.000001 0.000003 0.000001 9.109406 -0.517820 2.259756 104.472053 -19.241883 24.669468 3.700067 0.000190 -0.000466 101.094094 -13.968298 16.954172 2.850049 0.000230 0.000201 99.113025 -11.521087 13.497853 2.774899 -0.000043 -0.000035 0.000003 -0.000002 -0.000001 9.533479 0.000237 -0.000063 100.163693 -18.021063 21.453119 3.700045 0.000239 -0.000373 101.645188 -11.877114 14.544978 2.950068 0.000214 -0.000194 101.323637 -11.114927 13.544169 2.952873 -0.000027 0.000070 0.000005 0.000003 -0.000000 9.104595 -0.042837 -1.865192 98.903953 -18.231059 21.246782 3.150062 0.000211 -0.000088 101.461832 -13.495717 16.471370 2.950027 0.000218 -0.000068 102.245131 -11.070563 13.710227 2.644346 0.000048 0.000055 0.000000 -0.000002 0.000001 8.077847 -0.486706 -3.806377 87.829143 -20.555463 20.391856 3.600022 0.000175 0.014577 86.209869 -18.007789 17.371748 2.100046 0.000175 0.007541 86.841177 -12.935003 12.707591 2.125499 -0.000014 0.007514 -0.000000 -0.000005 -0.000001 -8.207786 -6.751667 -1.599560 -0.077001 -0.000003 0.000080 -0.000002 -44.370110 0.345938 0.153719 -0.000000 -0.000000 0.000000 -44.423679 -3.043532 -0.076700 0.000000 -0.000002 -0.000006 -8.728667 10.710559 -0.000009 -0.000000 -0.000000 -0.000001 -0.000679 9.278123 0.000000 -0.000000 -0.000000 8.207792 -6.751710 -1.599556 -0.074518 -0.000003 0.000081 -0.000002 -44.370014 0.346960 0.148822 0.000002 0.000000 -0.000001 -44.423664 -3.044403 -0.074314 0.000000 -0.000002 -0.000004 -8.728671 10.710558 0.000007 -0.000000 -0.000000 0.000000 -0.000680 9.278137 -0.000000 0.000000 -0.000001 
0.000006 104.270477 1.554256 0.000010 0.000003 -0.000113 -0.000005 10.181587 0.131522 0.000001 -0.000003 0.000084 -0.000000 9.893967 -1.470711 0.000001 0.000000 -0.000000 -0.000000 9.220802 -1.370642 0.000000 -0.000000 -0.000000 0.000001 16.740433 -2.049030 0.000000 -0.000000 -0.000000 0.000000 9.617859 1.685014 0.000000 0.000000 0.000000 0.000002 22.037384 7.501101 0.000000 -0.000000 0.000000 -4.569968 11.014880 -2.160881 0.000008 0.000001 -0.000038 -10.592884 -0.524728 -2.231959 66.403079 18.551782 -12.201547 -27.841534 0.000003 0.000534 117.593045 71.448649 -99.793749 -28.328817 0.000008 0.000027 -0.000322 -0.000043 0.000005 -2.464504 -1.574068 2.682384 0.039077 -147.959997 71.121148 -3.215258 -1.872529 1.924625 154.155184 34.397000 21.403018 -2.654965 -1.527920 1.513078 152.154389 26.975154 -29.190562 -2.018827 -1.151997 1.108060 0.000002 -0.000005 0.000002 -9.108384 -0.517571 2.260197 113.265560 16.507304 -24.914525 -3.700089 0.000297 0.001600 112.847299 13.873140 -20.735986 -2.850090 0.000362 -0.000194 109.662976 10.212912 -14.454647 -2.772156 -0.000015 -0.000020 -0.000000 0.000000 -0.000000 -9.532576 0.000280 0.000285 105.257252 14.114630 -18.596421 -3.700086 0.000326 0.004031 106.535645 11.796012 -15.636634 -2.950056 0.000337 -0.001738 104.368583 10.355947 -13.310370 -2.946625 -0.000000 -0.000154 -0.000001 0.000001 0.000000 -9.103689 -0.042744 -1.864832 102.006300 14.622528 -17.954674 -3.379337 0.000315 -0.000750 103.573159 12.360552 -15.685506 -2.889773 0.000348 0.000678 104.464246 9.072780 -11.754340 -2.638810 -0.000015 0.000939 0.000002 -0.000000 0.000000 -8.076746 -0.486370 -3.806017 92.105299 15.674953 -16.100136 -3.600061 0.000270 -0.003497 93.891079 10.928088 -11.300057 -2.100032 0.000319 -0.005455 95.733939 6.900101 -7.378939 -2.115759 -0.000042 -0.003678 -0.000006 -0.000000 -0.000004 4.570446 11.014691 -2.160851 -0.000018 0.000010 -0.000021 10.592363 -0.524544 -2.232273 67.750053 11.651963 -7.837196 27.841824 0.000081 -0.000191 105.622722 -69.152537 84.505259 28.328846 -0.000028 0.000021 0.000021 -0.000089 0.000000 2.466227 -1.575994 2.681868 43.789173 169.833009 -131.185613 3.217759 -1.872050 1.916558 174.421667 21.658666 110.304085 2.655940 -1.528399 1.514463 160.362392 -36.441873 -25.012219 2.020890 -1.154070 1.115152 -0.000001 0.000003 0.000006 9.109421 -0.517869 2.259791 109.878578 -26.223056 36.702933 3.700092 0.000183 -0.000414 108.396612 -21.928404 30.094466 2.850093 0.000229 0.000240 106.076676 -17.459176 23.064152 2.774895 -0.000030 -0.000015 -0.000001 0.000001 -0.000000 9.533470 0.000230 -0.000067 100.670117 -21.847335 26.194293 3.700059 0.000201 -0.000368 101.230220 -17.411832 21.127419 2.950074 0.000171 -0.000179 99.116324 -14.852497 17.392863 2.952868 -0.000011 0.000058 0.000001 -0.000002 -0.000001 9.104603 -0.042826 -1.865189 100.947143 -20.552036 24.787317 3.150052 0.000209 -0.000067 100.945381 -18.300875 22.094195 2.950029 0.000187 -0.000070 98.914185 -13.455795 15.706566 2.644328 0.000028 0.000055 0.000002 -0.000001 -0.000001 8.077862 -0.486687 -3.806378 94.626554 -21.392386 23.805272 3.600014 0.000216 0.014575 91.677463 -18.200760 19.280861 2.100056 0.000211 0.007551 91.440831 -13.181837 14.014735 2.125499 -0.000032 0.007514 -0.000001 0.000002 -0.000001 -8.207786 -6.751667 -1.599560 -0.077001 -0.000003 0.000080 -0.000002 -44.370110 0.345938 0.153719 -0.000000 -0.000000 0.000000 -44.423679 -3.043532 -0.076700 0.000000 -0.000002 -0.000006 -8.728667 10.710559 -0.000009 -0.000000 -0.000000 -0.000001 -0.000679 9.278123 0.000000 -0.000000 -0.000000 8.207792 -6.751710 -1.599556 -0.074518 -0.000003 0.000081 -0.000002 -44.370014 0.346960 0.148822 0.000002 0.000000 -0.000001 -44.423664 -3.044403 -0.074314 0.000000 -0.000002 -0.000004 -8.728671 10.710558 0.000007 -0.000000 -0.000000 0.000000 -0.000680 9.278137 -0.000000 0.000000 -0.000001 
